<svg width="222" height="60" viewBox="0 0 222 60" fill="none" xmlns="http://www.w3.org/2000/svg">
<path d="M30.981 13.4002L39.3023 32.1604V16.1231L30.981 13.4002ZM39.8973 44.0071C39.6628 44.0071 39.449 43.8686 39.354 43.6538L23.0233 6.83596C22.9283 6.62111 22.9675 6.37011 23.1256 6.19657C23.2836 6.02097 23.5284 5.95693 23.7526 6.02924L39.8973 11.3137L48.7123 8.42874L56.0431 6.02924C56.2662 5.95693 56.512 6.02097 56.67 6.19657C56.8281 6.37011 56.8684 6.62111 56.7723 6.83596L40.4416 43.6538C40.3456 43.8686 40.1328 44.0071 39.8973 44.0071Z" fill="white"/>
<path d="M11.4526 51H68.3434V48.6201H11.4526V51Z" fill="white"/>
<path d="M76 6.46863H81.2759L84.7734 17.7701C85.1637 19.0187 85.5231 20.96 85.5231 20.96H85.5799C85.5799 20.96 85.9418 19.0187 86.327 17.7701L89.8813 6.46863H95.0745L88.077 26.3187H83.0234" fill="white"/>
<path d="M101.242 22.9891C102.491 22.9891 103.6 21.6269 103.6 20.4636V20.156H103.155C101.63 20.156 99.8801 20.6006 99.8801 21.7949C99.8801 22.4592 100.296 22.9891 101.242 22.9891ZM103.352 17.4082H103.546V17.1574C103.546 15.9658 102.631 15.5754 101.436 15.5754C99.6294 15.5754 97.5743 16.9351 97.5743 16.9351L95.9096 13.5488C95.9096 13.5488 98.3809 11.6876 101.907 11.6876C105.932 11.6876 108.349 13.8823 108.349 17.5193V26.3186H103.962V25.4578C103.962 24.9873 104.016 24.5711 104.016 24.5711H103.962C103.962 24.5711 102.907 26.652 99.9086 26.652C97.2435 26.652 95.0488 24.8762 95.0488 22.043C95.0488 17.8786 101.131 17.4082 103.352 17.4082Z" fill="white"/>
<path d="M111.487 6.46863H116.29V20.4068C116.29 21.7665 116.541 22.2396 117.624 22.2396C117.929 22.2396 118.208 22.2111 118.208 22.2111V26.3755C118.208 26.3755 117.541 26.4582 116.763 26.4582C114.209 26.4582 111.487 25.8482 111.487 21.0453" fill="white"/>
<path d="M120.457 6.46863H125.26V20.4068C125.26 21.7665 125.511 22.2396 126.591 22.2396C126.896 22.2396 127.175 22.2111 127.175 22.2111V26.3755C127.175 26.3755 126.508 26.4582 125.73 26.4582C123.176 26.4582 120.457 25.8482 120.457 21.0453" fill="white"/>
<path d="M136.171 6.46863H140.92L137.644 10.633H133.922L136.171 6.46863ZM137.81 17.3514C137.81 16.2709 137.06 15.2989 135.92 15.2989C134.532 15.2989 133.868 16.2967 133.617 17.3514H137.81ZM136.034 11.6877C140.253 11.6877 142.641 14.632 142.641 18.6025C142.641 19.073 142.53 20.1018 142.53 20.1018H133.506C133.868 21.8492 135.31 22.6532 136.838 22.6532C138.893 22.6532 140.78 21.2107 140.78 21.2107L142.558 24.5712C142.558 24.5712 140.253 26.6521 136.448 26.6521C131.342 26.6521 128.592 22.9608 128.592 19.1583C128.592 14.9654 131.425 11.6877 136.034 11.6877Z" fill="white"/>
<path d="M153.444 17.3513C153.444 16.2682 152.694 15.2988 151.554 15.2988C150.166 15.2988 149.499 16.2966 149.251 17.3513H153.444ZM151.666 11.6876C155.884 11.6876 158.273 14.6319 158.273 18.6024C158.273 19.0755 158.162 20.0991 158.162 20.0991H149.14C149.499 21.8492 150.944 22.6557 152.472 22.6557C154.525 22.6557 156.414 21.2107 156.414 21.2107L158.19 24.5711C158.19 24.5711 155.884 26.652 152.082 26.652C146.974 26.652 144.226 22.9607 144.226 19.1582C144.226 14.9654 147.057 11.6876 151.666 11.6876Z" fill="white"/>
<path d="M168.882 20.1276C168.882 20.1276 171.131 22.1827 173.63 22.1827C174.628 22.1827 175.711 21.7949 175.711 20.6007C175.711 18.2406 166.772 18.3233 166.772 12.2176C166.772 8.55208 169.854 6.13513 173.796 6.13513C178.071 6.13513 180.183 8.38406 180.183 8.38406L178.128 12.3546C178.128 12.3546 176.127 10.6046 173.741 10.6046C172.741 10.6046 171.629 11.0492 171.629 12.1607C171.629 14.6578 180.571 14.2132 180.571 20.4895C180.571 23.7931 178.043 26.6521 173.573 26.6521C168.91 26.6521 166.328 23.8215 166.328 23.8215" fill="white"/>
<path d="M183.155 12.0211H187.958V20.4068C187.958 21.738 188.485 22.2938 189.483 22.2938C191.538 22.2938 192.51 20.4895 192.51 18.3491V12.0211H197.313V26.3186H192.704V25.0701C192.704 24.597 192.761 24.1834 192.761 24.1834H192.704C191.929 25.7086 190.15 26.6521 188.235 26.6521C185.402 26.6521 183.155 25.3208 183.155 21.2934" fill="white"/>
<path d="M207.532 22.6816C208.977 22.6816 210.337 21.6269 210.337 19.1583C210.337 17.4367 209.422 15.7435 207.532 15.7435C206.033 15.7435 204.73 16.9636 204.73 19.1583C204.73 21.2935 205.868 22.6816 207.532 22.6816ZM206.423 11.6877C209.311 11.6877 210.172 12.8277 210.172 12.8277H210.226C210.226 12.8277 210.197 12.5485 210.197 12.1892V6.46863H215V26.3187H210.502V25.3751C210.502 24.9305 210.531 24.5712 210.531 24.5712H210.477C210.477 24.5712 209.282 26.6521 206.338 26.6521C202.453 26.6521 199.899 23.5993 199.899 19.1583C199.899 14.632 202.618 11.6877 206.423 11.6877Z" fill="white"/>
<path d="M98.1689 35.2083C101.615 35.2083 103.489 36.9324 103.489 36.9324L102.923 37.6511C102.923 37.6511 101.09 36.1027 98.1689 36.1027C94.3302 36.1027 91.5384 39.1555 91.5384 43.1028C91.5384 47.0733 94.2656 50.1055 98.0371 50.1055C101.31 50.1055 103.272 47.598 103.272 47.598V44.6538H100.547V43.78H104.21V50.7388H103.272V49.4075C103.272 49.0818 103.292 48.7535 103.292 48.7535H103.251C103.251 48.7535 101.418 50.9999 98.0371 50.9999C93.7848 50.9999 90.5562 47.5308 90.5562 43.1028C90.5562 38.698 93.8494 35.2083 98.1689 35.2083Z" fill="white"/>
<path d="M107.662 39.8329H108.577V41.906C108.577 42.4075 108.489 42.7979 108.489 42.7979H108.533C109.081 41.1202 110.301 39.745 112.025 39.745C112.348 39.745 112.656 39.8122 112.656 39.8122V40.7273C112.656 40.7273 112.395 40.6833 112.154 40.6833C110.453 40.6833 109.383 42.1232 108.905 43.7362C108.665 44.5014 108.577 45.3079 108.577 46.0265V50.7389H107.662" fill="white"/>
<path d="M117.893 50.1495C120.271 50.1495 121.623 47.6834 121.623 45.525V44.9356H120.925C119.069 44.9356 115.101 44.9356 115.101 47.7713C115.101 48.9268 116.039 50.1495 117.893 50.1495ZM120.902 44.0877H121.623V43.7155C121.623 41.2934 120.38 40.4636 118.632 40.4636C116.737 40.4636 115.515 41.5105 115.515 41.5105L114.993 40.7712C114.993 40.7712 116.301 39.5718 118.679 39.5718C121.186 39.5718 122.538 40.9677 122.538 43.6922V50.7389H121.623V49.299C121.623 48.7097 121.708 48.3168 121.708 48.3168H121.664C121.688 48.3168 120.685 51 117.849 51C116.083 51 114.142 50.0202 114.142 47.8385C114.142 44.1291 118.96 44.0877 120.902 44.0877Z" fill="white"/>
<path d="M126.226 39.8329H127.144V41.7509C127.144 42.255 127.056 42.6453 127.056 42.6453H127.1C127.469 41.6217 128.997 39.5718 131.724 39.5718C134.557 39.5718 135.323 41.2494 135.323 43.8241V50.7389H134.405V44.1524C134.405 42.255 134.167 40.4636 131.724 40.4636C129.674 40.4636 127.862 41.906 127.317 43.9326C127.188 44.3902 127.144 44.8917 127.144 45.4164V50.7389H126.226" fill="white"/>
<path d="M143.047 50.1055C145.056 50.1055 146.93 48.6889 146.93 45.2638C146.93 42.8417 145.687 40.4635 143.135 40.4635C140.997 40.4635 139.253 42.2317 139.253 45.2845C139.253 48.2288 140.822 50.1055 143.047 50.1055ZM143.177 39.5717C145.927 39.5717 146.951 42.0352 146.951 42.0352H146.995C146.995 42.0352 146.909 41.6423 146.909 41.1408V35.4694H147.824V50.7388H146.909V49.3636C146.909 48.8621 146.995 48.5364 146.995 48.5364H146.951C146.951 48.5364 146.012 50.9999 143.003 50.9999C140.082 50.9999 138.291 48.6657 138.291 45.2845C138.291 41.8181 140.32 39.5717 143.177 39.5717Z" fill="white"/>
<path d="M163.117 43.5397C165.342 43.5397 166.826 42.2084 166.826 39.9207C166.826 37.6304 165.342 36.3431 163.117 36.3431H159.081V43.5397H163.117ZM158.143 35.4694H163.161C165.823 35.4694 167.808 37.1496 167.808 39.9207C167.808 42.6892 165.823 44.4134 163.161 44.4134H159.081V50.7362H158.143" fill="white"/>
<path d="M173.482 50.1495C175.858 50.1495 177.21 47.6834 177.21 45.525V44.9356H176.512C174.659 44.9356 170.688 44.9356 170.688 47.7713C170.688 48.9268 171.626 50.1495 173.482 50.1495ZM176.491 44.0877H177.21V43.7155C177.21 41.2934 175.967 40.4636 174.222 40.4636C172.324 40.4636 171.104 41.5105 171.104 41.5105L170.579 40.7712C170.579 40.7712 171.89 39.5718 174.268 39.5718C176.776 39.5718 178.128 40.9677 178.128 43.6922V50.7389H177.21V49.299C177.21 48.7097 177.298 48.3168 177.298 48.3168H177.254C177.275 48.3168 176.274 51 173.438 51C171.67 51 169.729 50.0202 169.729 47.8385C169.729 44.1291 174.55 44.0877 176.491 44.0877Z" fill="white"/>
<path d="M181.817 39.8329H182.732V41.906C182.732 42.4075 182.644 42.7979 182.644 42.7979H182.688C183.233 41.1202 184.456 39.745 186.178 39.745C186.503 39.745 186.811 39.8122 186.811 39.8122V40.7273C186.811 40.7273 186.55 40.6833 186.31 40.6833C184.609 40.6833 183.538 42.1232 183.06 43.7362C182.82 44.5014 182.732 45.3079 182.732 46.0265V50.7389H181.817" fill="white"/>
<path d="M189.191 39.8328H190.106V50.7388H189.191V39.8328ZM189.104 35.4694H190.192V37.0617H189.104V35.4694Z" fill="white"/>
<path d="M193.596 48.7303C193.596 48.7303 194.819 50.1056 196.977 50.1056C198.308 50.1056 199.485 49.4076 199.485 48.0557C199.485 45.2846 193.487 46.0704 193.487 42.5161C193.487 40.5747 195.124 39.5718 196.977 39.5718C199.203 39.5718 200.206 40.7479 200.206 40.7479L199.66 41.4898C199.66 41.4898 198.766 40.4636 196.913 40.4636C195.667 40.4636 194.447 41.0323 194.447 42.4489C194.447 45.2846 200.446 44.4341 200.446 48.0557C200.446 49.8005 198.962 51 196.957 51C194.317 51 193.009 49.4309 193.009 49.4309" fill="white"/>
</svg>
